<?xml version="1.0" encoding="UTF-8" standalone="no"?>
<svg
   xmlns:dc="http://purl.org/dc/elements/1.1/"
   xmlns:cc="http://creativecommons.org/ns#"
   xmlns:rdf="http://www.w3.org/1999/02/22-rdf-syntax-ns#"
   xmlns:svg="http://www.w3.org/2000/svg"
   xmlns="http://www.w3.org/2000/svg"
   xmlns:sodipodi="http://sodipodi.sourceforge.net/DTD/sodipodi-0.dtd"
   xmlns:inkscape="http://www.inkscape.org/namespaces/inkscape"
   version="1.1"
   width="76"
   height="76"
   viewBox="0 0 76.00 76.00"
   enable-background="new 0 0 76.00 76.00"
   xml:space="preserve"
   id="svg2"
   inkscape:version="0.91 r13725"
   sodipodi:docname="appbar.book.perspective.help.svg"><metadata
     id="metadata10"><rdf:RDF><cc:Work
         rdf:about=""><dc:format>image/svg+xml</dc:format><dc:type
           rdf:resource="http://purl.org/dc/dcmitype/StillImage" /></cc:Work></rdf:RDF></metadata><defs
     id="defs8" /><sodipodi:namedview
     pagecolor="#ffffff"
     bordercolor="#666666"
     borderopacity="1"
     objecttolerance="10"
     gridtolerance="10"
     guidetolerance="10"
     inkscape:pageopacity="0"
     inkscape:pageshadow="2"
     inkscape:window-width="1680"
     inkscape:window-height="997"
     id="namedview6"
     showgrid="false"
     inkscape:zoom="3.1052632"
     inkscape:cx="38"
     inkscape:cy="38"
     inkscape:window-x="-8"
     inkscape:window-y="261"
     inkscape:window-maximized="1"
     inkscape:current-layer="svg2" /><path
     fill="#000000"
     fill-opacity="1"
     stroke-width="0.2"
     stroke-linejoin="round"
     d="M 25,27L 46,19L 46,22.25L 28.5,29L 31.75,31.25L 51,23.75L 51,48.5L 31.75,57L 25,52L 25,27 Z M 41.8929,46.0327C 40.9009,46.4197 40.0967,47.5376 40.0967,48.5296C 40.0967,49.5216 40.9009,50.0121 41.8929,49.6251C 42.8849,49.2381 43.6891,48.1202 43.6891,47.1282C 43.6891,46.1361 42.8849,45.6457 41.8929,46.0327 Z M 42.2521,31.5228C 39.0777,32.7612 36.5042,36.1777 36.5042,39.1538L 36.5042,39.8723L 40.0967,38.4708L 40.0967,37.3931C 40.0967,36.2027 41.0617,34.8612 42.2521,34.3968C 43.4425,33.9324 44.4076,34.5209 44.4076,35.7113C 44.4076,36.2305 44.4076,36.4298 42.9706,38.4274C 42.2521,39.4262 40.0967,41.7753 40.0967,44.2187L 40.0967,45.2964L 43.6891,43.895L 43.6891,42.458C 43.6891,41.2676 44.4076,40.0223 45.8445,38.7432C 47.2815,37.4641 48,35.3876 48,34.3099C 48,31.3338 45.4266,30.2844 42.2521,31.5228 Z "
     id="path4"
     style="fill:#0e529b;fill-opacity:1"
     inkscape:export-xdpi="55"
     inkscape:export-ydpi="55" /></svg>