<?xml version="1.0" encoding="UTF-8" standalone="no"?>
<svg
   xmlns:dc="http://purl.org/dc/elements/1.1/"
   xmlns:cc="http://creativecommons.org/ns#"
   xmlns:rdf="http://www.w3.org/1999/02/22-rdf-syntax-ns#"
   xmlns:svg="http://www.w3.org/2000/svg"
   xmlns="http://www.w3.org/2000/svg"
   xmlns:sodipodi="http://sodipodi.sourceforge.net/DTD/sodipodi-0.dtd"
   xmlns:inkscape="http://www.inkscape.org/namespaces/inkscape"
   version="1.1"
   width="76"
   height="76"
   viewBox="0 0 76.00 76.00"
   enable-background="new 0 0 76.00 76.00"
   xml:space="preserve"
   id="svg2"
   inkscape:version="0.91 r13725"
   sodipodi:docname="appbar.page.download.svg"><metadata
     id="metadata10"><rdf:RDF><cc:Work
         rdf:about=""><dc:format>image/svg+xml</dc:format><dc:type
           rdf:resource="http://purl.org/dc/dcmitype/StillImage" /></cc:Work></rdf:RDF></metadata><defs
     id="defs8"><pattern
       y="0"
       x="0"
       height="6"
       width="6"
       patternUnits="userSpaceOnUse"
       id="EMFhbasepattern" /></defs><sodipodi:namedview
     pagecolor="#ffffff"
     bordercolor="#666666"
     borderopacity="1"
     objecttolerance="10"
     gridtolerance="10"
     guidetolerance="10"
     inkscape:pageopacity="0"
     inkscape:pageshadow="2"
     inkscape:window-width="1680"
     inkscape:window-height="997"
     id="namedview6"
     showgrid="false"
     inkscape:zoom="8.7830105"
     inkscape:cx="64.698789"
     inkscape:cy="29.658335"
     inkscape:window-x="-8"
     inkscape:window-y="261"
     inkscape:window-maximized="1"
     inkscape:current-layer="svg2" /><path
     fill="#000000"
     fill-opacity="1"
     stroke-width="0.2"
     stroke-linejoin="round"
     d="M 20,17L 43.25,17L 56,29.75L 56,59L 20,59L 20,17 Z M 24,21L 24,55L 52,55L 52,34L 39,34L 39,21L 24,21 Z M 43,22.25L 43,30L 50.75,30L 43,22.25 Z M 30,33L 34,33L 34,41.5L 37,38.5L 37,43.25L 32,48.25L 27,42.75L 27,38.5L 30,41.5L 30,33 Z M 38,49L 38,53L 26,53L 26,49L 38,49 Z "
     id="path4"
     style="fill:#0d519b;fill-opacity:1"
     inkscape:export-xdpi="40"
     inkscape:export-ydpi="40" /></svg>