<?xml version="1.0" encoding="UTF-8" standalone="no"?>
<svg
   xmlns:dc="http://purl.org/dc/elements/1.1/"
   xmlns:cc="http://creativecommons.org/ns#"
   xmlns:rdf="http://www.w3.org/1999/02/22-rdf-syntax-ns#"
   xmlns:svg="http://www.w3.org/2000/svg"
   xmlns="http://www.w3.org/2000/svg"
   xmlns:sodipodi="http://sodipodi.sourceforge.net/DTD/sodipodi-0.dtd"
   xmlns:inkscape="http://www.inkscape.org/namespaces/inkscape"
   version="1.1"
   width="76"
   height="76"
   viewBox="0 0 76.00 76.00"
   enable-background="new 0 0 76.00 76.00"
   xml:space="preserve"
   id="svg2"
   inkscape:version="0.91 r13725"
   sodipodi:docname="appbar.page.delete.svg"><metadata
     id="metadata10"><rdf:RDF><cc:Work
         rdf:about=""><dc:format>image/svg+xml</dc:format><dc:type
           rdf:resource="http://purl.org/dc/dcmitype/StillImage" /></cc:Work></rdf:RDF></metadata><defs
     id="defs8" /><sodipodi:namedview
     pagecolor="#ffffff"
     bordercolor="#666666"
     borderopacity="1"
     objecttolerance="10"
     gridtolerance="10"
     guidetolerance="10"
     inkscape:pageopacity="0"
     inkscape:pageshadow="2"
     inkscape:window-width="813"
     inkscape:window-height="761"
     id="namedview6"
     showgrid="false"
     inkscape:zoom="3.1052632"
     inkscape:cx="38.000001"
     inkscape:cy="38.000001"
     inkscape:window-x="792"
     inkscape:window-y="357"
     inkscape:window-maximized="0"
     inkscape:current-layer="svg2" /><path
     fill="#000000"
     fill-opacity="1"
     stroke-width="0.2"
     stroke-linejoin="round"
     d="M 43,30L 50.75,30L 43,22.25L 43,30 Z M 52,34L 39,34L 39,21L 24,21L 24,39L 20,43L 20,17L 43.25,17L 56,29.75L 56,59L 36.5,59L 40.5,55L 52,55L 52,34 Z M 35.1379,40.67L 38.4967,44.0287L 32.8988,49.6266L 38.4967,55.2246L 35.1379,58.5833L 29.54,52.9854L 23.9421,58.5833L 20.5833,55.2246L 26.1813,49.6266L 20.5833,44.0287L 23.9421,40.67L 29.54,46.2679L 35.1379,40.67 Z "
     id="path4"
     style="fill:#0d519b;fill-opacity:1"
     inkscape:export-xdpi="40"
     inkscape:export-ydpi="40" /></svg>