<?xml version="1.0" encoding="UTF-8" standalone="no"?>
<svg
   xmlns:dc="http://purl.org/dc/elements/1.1/"
   xmlns:cc="http://creativecommons.org/ns#"
   xmlns:rdf="http://www.w3.org/1999/02/22-rdf-syntax-ns#"
   xmlns:svg="http://www.w3.org/2000/svg"
   xmlns="http://www.w3.org/2000/svg"
   xmlns:sodipodi="http://sodipodi.sourceforge.net/DTD/sodipodi-0.dtd"
   xmlns:inkscape="http://www.inkscape.org/namespaces/inkscape"
   version="1.1"
   width="76.0106"
   height="76.0106"
   viewBox="0 0 76.01 76.01"
   enable-background="new 0 0 76.01 76.01"
   xml:space="preserve"
   id="svg2"
   inkscape:version="0.91 r13725"
   sodipodi:docname="appbar.diagram.svg"><metadata
     id="metadata10"><rdf:RDF><cc:Work
         rdf:about=""><dc:format>image/svg+xml</dc:format><dc:type
           rdf:resource="http://purl.org/dc/dcmitype/StillImage" /></cc:Work></rdf:RDF></metadata><defs
     id="defs8" /><sodipodi:namedview
     pagecolor="#ffffff"
     bordercolor="#666666"
     borderopacity="1"
     objecttolerance="10"
     gridtolerance="10"
     guidetolerance="10"
     inkscape:pageopacity="0"
     inkscape:pageshadow="2"
     inkscape:window-width="1680"
     inkscape:window-height="997"
     id="namedview6"
     showgrid="false"
     inkscape:zoom="3.1048302"
     inkscape:cx="38.005299"
     inkscape:cy="38.005299"
     inkscape:window-x="-8"
     inkscape:window-y="261"
     inkscape:window-maximized="1"
     inkscape:current-layer="svg2" /><path
     d="m 42.7544,19.0011 0,9.5013 -3.1672,0 0,1.5837 c 1.0557,1.5836 2.1114,4.7505 4.2668,6.51 2.1554,1.7595 5.4105,3.695 7.258,5.5424 1.8449,1.845 2.2861,3.6022 2.7254,5.3592 l 3.1722,0 0,9.5014 -9.5013,0 0,-9.5014 3.162,0 C 50.231,45.7774 49.7898,44.057 47.9449,42.2232 46.0974,40.3867 42.8423,38.4365 40.6869,36.6586 l -1.0997,-0.9792 0,11.8256 3.1671,0 0,9.5013 -9.5013,0 0,-9.5013 3.1671,0 0,-11.8255 c -0.333,0.3211 -0.6971,0.6471 -1.0997,0.9791 -2.1553,1.7779 -5.4104,3.7281 -7.2579,5.5646 -1.8475,1.8364 -2.2874,3.5591 -2.7272,5.2818 l 3.1671,0 0,9.5013 -9.5014,0 0,-9.5013 3.1671,0 c 0.4399,-1.7595 0.8798,-3.519 2.7273,-5.3665 1.8475,-1.8474 5.1025,-3.7829 7.2579,-5.5424 2.1554,-1.7595 3.2111,-4.9264 4.2668,-6.51 l 0,-1.5837 -3.1671,0 0,-9.5013 9.5014,0 z"
     id="path4"
     style="fill:#0d519b;fill-opacity:1;stroke-width:0.2;stroke-linejoin:round"
     inkscape:connector-curvature="0"
     inkscape:export-xdpi="47.357334"
     inkscape:export-ydpi="47.357334" /></svg>