<?xml version="1.0" encoding="UTF-8" standalone="no"?>
<svg
   xmlns:dc="http://purl.org/dc/elements/1.1/"
   xmlns:cc="http://creativecommons.org/ns#"
   xmlns:rdf="http://www.w3.org/1999/02/22-rdf-syntax-ns#"
   xmlns:svg="http://www.w3.org/2000/svg"
   xmlns="http://www.w3.org/2000/svg"
   xmlns:sodipodi="http://sodipodi.sourceforge.net/DTD/sodipodi-0.dtd"
   xmlns:inkscape="http://www.inkscape.org/namespaces/inkscape"
   version="1.1"
   width="46.906387"
   height="77.374168"
   viewBox="0 0 46.906387 77.374168"
   enable-background="new 0 0 76.00 76.00"
   xml:space="preserve"
   id="svg2"
   inkscape:version="0.91 r13725"
   sodipodi:docname="appbar.cell.insert.below.svg"><metadata
     id="metadata10"><rdf:RDF><cc:Work
         rdf:about=""><dc:format>image/svg+xml</dc:format><dc:type
           rdf:resource="http://purl.org/dc/dcmitype/StillImage" /><dc:title></dc:title></cc:Work></rdf:RDF></metadata><defs
     id="defs8" /><sodipodi:namedview
     pagecolor="#ffffff"
     bordercolor="#666666"
     borderopacity="1"
     objecttolerance="10"
     gridtolerance="10"
     guidetolerance="10"
     inkscape:pageopacity="0"
     inkscape:pageshadow="2"
     inkscape:window-width="1680"
     inkscape:window-height="997"
     id="namedview6"
     showgrid="false"
     inkscape:zoom="6.2105262"
     inkscape:cx="7.047271"
     inkscape:cy="39.485543"
     inkscape:window-x="-8"
     inkscape:window-y="261"
     inkscape:window-maximized="1"
     inkscape:current-layer="svg2"
     fit-margin-top="0"
     fit-margin-left="0"
     fit-margin-right="0"
     fit-margin-bottom="0" /><g
     id="g4162"
     transform="translate(-13.940876,14.805813)"
     inkscape:export-xdpi="38.374306"
     inkscape:export-ydpi="38.374306"><path
       inkscape:connector-curvature="0"
       id="path4147"
       d="m 45.847264,16.717109 0,-5 5,0 0,-5 5,0 0,5 5,0 0,5 -5,0 0,5 -5,0 0,-5 -5,0 z"
       style="fill:#0d519b;fill-opacity:1;stroke:none;stroke-width:0.2;stroke-linejoin:round" /><path
       inkscape:connector-curvature="0"
       id="path4145"
       d="m 13.940876,-14.805813 0,36.522922 29.90678,0 0,-14.8791024 -5.607521,0 0,-21.6438196 -24.299259,0 z m 2.803761,4.05924 18.691737,0 0,6.7626697 -18.691737,0 0,-6.7626697 z m 0,10.82190994 18.691737,0 0,6.76266966 -18.691737,0 0,-6.76266966 z m 0,10.81986106 24.299258,0 0,6.764718 -24.299258,0 0,-6.764718 z"
       style="fill:#0d519b;fill-opacity:1;stroke-width:0.2;stroke-linejoin:round" /></g><g
     id="g4166"
     transform="translate(-13.940876,8.805813)"
     inkscape:export-xdpi="39.442902"
     inkscape:export-ydpi="39.442902"><path
       inkscape:connector-curvature="0"
       id="path4157"
       d="m 13.940876,32.045437 0,36.522922 24.299259,0 0,-10.821909 5.607521,0 0,-14.879102 -5.607521,0 0,-10.821911 -24.299259,0 z m 2.803761,4.057193 18.691737,0 0,6.764718 -18.691737,0 0,-6.764718 z m 0,10.821909 24.299258,0 0,6.764718 -24.299258,0 0,-6.764718 z m 0,10.821911 18.691737,0 0,6.76267 -18.691737,0 0,-6.76267 z"
       style="fill:#0d519b;fill-opacity:1;stroke-width:0.2;stroke-linejoin:round" /><path
       inkscape:connector-curvature="0"
       id="path4-5"
       d="m 46.118065,54.661098 4.3542,-4.3542 -4.3542,-4.3542 2.375,-2.375 4.3542,4.3542 4.3542,-4.3542 2.3749,2.375 -4.3541,4.3542 4.3542,4.3542 -2.375,2.375 -4.3542,-4.3542 -4.3542,4.3542 -2.375,-2.375 z"
       style="fill:#0d519b;fill-opacity:1;stroke-width:0.2;stroke-linejoin:round" /></g></svg>